<svg class="svg-icon" style="width: 1em; height: 1em;vertical-align: middle;fill: currentColor;overflow: hidden;" viewBox="0 0 1024 1024" version="1.1" xmlns="http://www.w3.org/2000/svg"><path d="M144.151273 879.988364h256.930909a35.700364 35.700364 0 0 1 0 71.400727H119.714909c-27.042909 0-48.942545-21.317818-48.942545-47.592727v-189.719273c0-115.665455 96.395636-209.454545 215.319272-209.454546h167.889455a35.700364 35.700364 0 0 1 0 71.400728h-167.889455c-78.382545 0-141.917091 61.812364-141.917091 138.053818v165.911273zM721.454545 965.818182a221.090909 221.090909 0 1 1 0-442.181818 221.090909 221.090909 0 0 1 0 442.181818z m0-69.818182a151.272727 151.272727 0 1 0 0-302.545455 151.272727 151.272727 0 0 0 0 302.545455z"  /><path d="M611.072 584.983273l246.853818 246.853818-49.361454 49.361454-246.853819-246.853818z"  /><path d="M452.421818 504.552727a186.181818 186.181818 0 1 0 0-372.363636 186.181818 186.181818 0 0 0 0 372.363636z m0 69.818182c-141.381818 0-256-114.618182-256-256s114.618182-256 256-256 256 114.618182 256 256-114.618182 256-256 256z"  /></svg>